<svg xmlns="http://www.w3.org/2000/svg" xmlns:xlink="http://www.w3.org/1999/xlink" width="575.346" height="273.302" viewBox="0 0 575.346 273.302"><defs><style>.a{fill:url(#a);}.b{fill:url(#b);}.c{fill:url(#c);}.d{fill:url(#d);}.e{fill:#fbfbff;font-size:191px;}.e,.f{font-family:Righteous-Regular, Righteous;}.f{fill:#00e9a1;font-size:71px;}</style><linearGradient id="a" x1="1.087" y1="0.951" x2="-0.152" y2="0.14" gradientUnits="objectBoundingBox"><stop offset="0" stop-color="#d3aaff"/><stop offset="0.633" stop-color="#f07fc9"/><stop offset="1" stop-color="#ff6ab0"/></linearGradient><linearGradient id="b" x1="1.032" y1="0.848" x2="-0.032" y2="0.152" xlink:href="#a"/><linearGradient id="c" x1="1.18" y1="0.946" x2="-0.18" y2="0.054" xlink:href="#a"/><linearGradient id="d" x1="0.5" y1="1" x2="0.5" gradientUnits="objectBoundingBox"><stop offset="0" stop-color="#aaffdc"/><stop offset="0.002" stop-color="#a9fedb" stop-opacity="0.996"/><stop offset="0.169" stop-color="#86ded6" stop-opacity="0.737"/><stop offset="0.334" stop-color="#68c3d1" stop-opacity="0.514"/><stop offset="0.491" stop-color="#50accd" stop-opacity="0.329"/><stop offset="0.64" stop-color="#3c9aca" stop-opacity="0.184"/><stop offset="0.778" stop-color="#2f8ec7" stop-opacity="0.082"/><stop offset="0.902" stop-color="#2686c6" stop-opacity="0.024"/><stop offset="1" stop-color="#2484c6" stop-opacity="0"/></linearGradient></defs><g transform="translate(-722.627 -2027.225)"><g transform="translate(722.627 2074.303)"><g transform="translate(0 0)"><g transform="translate(0)"><path class="a" d="M439.579,1777.779a15.822,15.822,0,0,1-15.8-15.8V1594.351a3.518,3.518,0,0,1,3.519-3.518,35.8,35.8,0,0,0,35.758-35.758,3.519,3.519,0,0,1,7.037,0,35.8,35.8,0,0,0,35.758,35.758,3.519,3.519,0,0,1,3.519,3.518v167.624a15.822,15.822,0,0,1-15.8,15.8Z" transform="translate(-322.523 -1551.556)"/><path class="b" d="M714.261,1777.779a8.129,8.129,0,0,1-8.12-8.12V1629.025a77.469,77.469,0,0,1,77.469-77.469,8.129,8.129,0,0,1,8.12,8.12v140.633a77.47,77.47,0,0,1-77.469,77.469Z" transform="translate(-505.538 -1551.556)"/><path class="c" d="M213.477,1777.779a77.47,77.47,0,0,1-77.469-77.469V1559.676a8.129,8.129,0,0,1,8.12-8.12,77.469,77.469,0,0,1,77.469,77.469v140.634A8.129,8.129,0,0,1,213.477,1777.779Z" transform="translate(-136.008 -1551.556)"/></g><g transform="translate(13.819 11.607)"><path class="d" d="M478.192,1584.543h0a36.378,36.378,0,0,1-36.378,36.378v155.253a11.379,11.379,0,0,0,11.379,11.378h50a11.379,11.379,0,0,0,11.379-11.378V1620.921A36.377,36.377,0,0,1,478.192,1584.543Z" transform="translate(-348.034 -1584.543)"/><path class="d" d="M771.834,1584.543h0a68.493,68.493,0,0,0-68.493,68.493v130.255a4.262,4.262,0,0,0,4.262,4.261h0A68.493,68.493,0,0,0,776.1,1719.06V1588.8A4.262,4.262,0,0,0,771.834,1584.543Z" transform="translate(-517.542 -1584.543)"/><path class="d" d="M179.546,1584.543h0a4.262,4.262,0,0,0-4.262,4.262V1719.06a68.493,68.493,0,0,0,68.493,68.493h0a4.262,4.262,0,0,0,4.262-4.261V1653.036A68.493,68.493,0,0,0,179.546,1584.543Z" transform="translate(-175.284 -1584.543)"/></g></g></g><text class="e" transform="translate(1027.973 2215.225)"><tspan x="0" y="0">Rw</tspan></text><text class="f" transform="translate(1035.689 2281.614)"><tspan x="0" y="0">PINTAR</tspan></text></g></svg>